<?xml version="1.0" encoding="UTF-8"?>
<svg width="214px" height="132px" viewBox="0 0 214 132" version="1.1" xmlns="http://www.w3.org/2000/svg" xmlns:xlink="http://www.w3.org/1999/xlink">
    <!-- Generator: Sketch 46 (44423) - http://www.bohemiancoding.com/sketch -->
    <title>Group</title>
    <desc>Created with Sketch.</desc>
    <defs></defs>
    <g id="Page-1" stroke="none" stroke-width="1" fill="none" fill-rule="evenodd">
        <g id="iPhone-7-plus-landing" transform="translate(-101.000000, -98.000000)" fill="#FFFFFF">
            <g id="Group" transform="translate(101.000000, 98.000000)">
                <g id="Group-4">
                    <path d="M62.3095703,124.841797 L62.9189453,124.841797 C63.0830086,124.841797 63.2236322,124.78711 63.3408203,124.677734 C63.4580084,124.568359 63.5429685,124.429688 63.5957031,124.261719 C63.6484378,124.093749 63.6855468,123.939454 63.7070312,123.798828 C63.7285157,123.658202 63.7392578,123.525391 63.7392578,123.400391 C63.7392578,123.27539 63.7304688,123.146485 63.7128906,123.013672 C63.6953124,122.880859 63.6640627,122.733399 63.6191406,122.571289 C63.5742185,122.409179 63.5000005,122.276368 63.3964844,122.172852 C63.2929682,122.069335 63.1669929,122.017578 63.0185547,122.017578 L62.3095703,122.017578 L62.3095703,124.841797 Z M60.1767578,131 L60.1767578,120.453125 L62.4970703,120.453125 C63.0244167,120.453125 63.4882792,120.502929 63.8886719,120.602539 C64.2890645,120.702149 64.6396469,120.858397 64.9404297,121.071289 C65.2412124,121.284181 65.4697258,121.571287 65.6259766,121.932617 C65.7822273,122.293947 65.8603516,122.72656 65.8603516,123.230469 C65.8603516,123.44922 65.8525391,123.64453 65.8369141,123.816406 C65.821289,123.988282 65.7851565,124.184569 65.7285156,124.405273 C65.6718747,124.625978 65.5947271,124.821288 65.4970703,124.991211 C65.3994136,125.161134 65.25879,125.328124 65.0751953,125.492188 C64.8916006,125.656251 64.6748059,125.792968 64.4248047,125.902344 C65.0576204,127.910166 65.6083961,129.609368 66.0771484,131 L63.8681641,131 L62.6611328,126.142578 L62.3095703,126.142578 L62.3095703,131 L60.1767578,131 Z M72.7509766,131 L72.7509766,120.453125 L77.1513672,120.453125 L77.1513672,121.917969 L74.8837891,121.917969 L74.8837891,124.789062 L76.4892578,124.789062 L76.4892578,126.289062 L74.8837891,126.289062 L74.8837891,129.535156 L77.1513672,129.535156 L77.1513672,131 L72.7509766,131 Z M83.7783203,127.478516 L83.7783203,123.986328 C83.7783203,121.494128 84.7978414,120.248047 86.8369141,120.248047 C87.2666037,120.248047 87.6484358,120.305663 87.9824219,120.420898 C88.3164079,120.536133 88.5966786,120.695311 88.8232422,120.898438 C89.0498058,121.101564 89.2363274,121.351561 89.3828125,121.648438 C89.5292976,121.945314 89.6347653,122.267576 89.6992188,122.615234 C89.7636722,122.962892 89.7958984,123.345701 89.7958984,123.763672 L89.7958984,124.671875 L87.6982422,124.671875 L87.6982422,123.699219 C87.6982422,123.507812 87.694336,123.342774 87.6865234,123.204102 C87.6787109,123.065429 87.6582033,122.907227 87.625,122.729492 C87.5917967,122.551757 87.5468753,122.407227 87.4902344,122.295898 C87.4335935,122.18457 87.3496099,122.089844 87.2382812,122.011719 C87.1269526,121.933593 86.9931648,121.894531 86.8369141,121.894531 C86.2197235,121.894531 85.9111328,122.414057 85.9111328,123.453125 L85.9111328,128.005859 C85.9111328,129.041021 86.2197235,129.558594 86.8369141,129.558594 C87.0205087,129.558594 87.1748041,129.50586 87.2998047,129.400391 C87.4248053,129.294921 87.5146482,129.145509 87.5693359,128.952148 C87.6240237,128.758788 87.6611327,128.569337 87.6806641,128.383789 C87.7001954,128.198241 87.7099609,127.986329 87.7099609,127.748047 L87.7099609,126.664062 L89.7958984,126.664062 L89.7958984,127.554688 C89.7880859,127.957033 89.7548831,128.328123 89.6962891,128.667969 C89.637695,129.007814 89.5380866,129.337889 89.3974609,129.658203 C89.2568352,129.978517 89.0781261,130.249022 88.8613281,130.469727 C88.6445302,130.690431 88.3642595,130.868163 88.0205078,131.00293 C87.6767561,131.137696 87.2822288,131.205078 86.8369141,131.205078 C86.3798805,131.205078 85.9746111,131.139649 85.6210938,131.008789 C85.2675764,130.877929 84.9765636,130.70215 84.7480469,130.481445 C84.5195301,130.260741 84.3310554,129.989259 84.1826172,129.666992 C84.0341789,129.344725 83.9296878,129.005861 83.8691406,128.650391 C83.8085934,128.29492 83.7783203,127.904299 83.7783203,127.478516 Z M96.6572266,127.53125 L96.6572266,123.986328 C96.6572266,121.494128 97.68456,120.248047 99.7392578,120.248047 C101.797862,120.248047 102.827148,121.494128 102.827148,123.986328 L102.827148,127.478516 C102.827148,127.900393 102.795899,128.290037 102.733398,128.647461 C102.670898,129.004885 102.564454,129.343748 102.414062,129.664062 C102.263671,129.984377 102.072267,130.256835 101.839844,130.481445 C101.607421,130.706056 101.313478,130.882812 100.958008,131.011719 C100.602537,131.140626 100.196291,131.205078 99.7392578,131.205078 C99.2861305,131.205078 98.8818377,131.141602 98.5263672,131.014648 C98.1708967,130.887695 97.8779308,130.715821 97.6474609,130.499023 C97.416991,130.282225 97.2265633,130.016603 97.0761719,129.702148 C96.9257805,129.387694 96.8183597,129.052736 96.7539062,128.697266 C96.6894528,128.341795 96.6572266,127.953127 96.6572266,127.53125 Z M100.694336,128.011719 L100.694336,123.453125 C100.694336,122.414057 100.37598,121.894531 99.7392578,121.894531 C99.5478506,121.894531 99.3857429,121.942382 99.2529297,122.038086 C99.1201165,122.13379 99.0224612,122.264648 98.9599609,122.430664 C98.8974606,122.596681 98.8535158,122.760741 98.828125,122.922852 C98.8027342,123.084962 98.7900391,123.261718 98.7900391,123.453125 L98.7900391,128.011719 C98.7900391,129.04688 99.1064421,129.564453 99.7392578,129.564453 C100.37598,129.564453 100.694336,129.04688 100.694336,128.011719 Z M112.079102,124.841797 L112.688477,124.841797 C112.85254,124.841797 112.993163,124.78711 113.110352,124.677734 C113.22754,124.568359 113.3125,124.429688 113.365234,124.261719 C113.417969,124.093749 113.455078,123.939454 113.476562,123.798828 C113.498047,123.658202 113.508789,123.525391 113.508789,123.400391 C113.508789,123.27539 113.5,123.146485 113.482422,123.013672 C113.464844,122.880859 113.433594,122.733399 113.388672,122.571289 C113.34375,122.409179 113.269532,122.276368 113.166016,122.172852 C113.062499,122.069335 112.936524,122.017578 112.788086,122.017578 L112.079102,122.017578 L112.079102,124.841797 Z M109.946289,131 L109.946289,120.453125 L112.266602,120.453125 C112.793948,120.453125 113.25781,120.502929 113.658203,120.602539 C114.058596,120.702149 114.409178,120.858397 114.709961,121.071289 C115.010744,121.284181 115.239257,121.571287 115.395508,121.932617 C115.551759,122.293947 115.629883,122.72656 115.629883,123.230469 C115.629883,123.44922 115.62207,123.64453 115.606445,123.816406 C115.59082,123.988282 115.554688,124.184569 115.498047,124.405273 C115.441406,124.625978 115.364258,124.821288 115.266602,124.991211 C115.168945,125.161134 115.028321,125.328124 114.844727,125.492188 C114.661132,125.656251 114.444337,125.792968 114.194336,125.902344 C114.827152,127.910166 115.377927,129.609368 115.84668,131 L113.637695,131 L112.430664,126.142578 L112.079102,126.142578 L112.079102,131 L109.946289,131 Z M122.520508,131 L122.520508,120.453125 L124.723633,120.453125 C125.426761,120.453125 126.005857,120.516601 126.460938,120.643555 C126.916018,120.770508 127.273436,120.979491 127.533203,121.270508 C127.79297,121.561525 127.972656,121.910154 128.072266,122.316406 C128.171875,122.722658 128.22168,123.240231 128.22168,123.869141 L128.22168,127.326172 C128.22168,127.701174 128.209961,128.028319 128.186523,128.307617 C128.163086,128.586915 128.119141,128.86035 128.054688,129.12793 C127.990234,129.395509 127.902344,129.622069 127.791016,129.807617 C127.679687,129.993165 127.536134,130.166015 127.360352,130.326172 C127.184569,130.486329 126.972657,130.613281 126.724609,130.707031 C126.476561,130.800782 126.185549,130.873047 125.851562,130.923828 C125.517576,130.97461 125.133791,131 124.700195,131 L122.520508,131 Z M124.735352,129.505859 C124.938478,129.505859 125.098632,129.50293 125.21582,129.49707 C125.333008,129.491211 125.450195,129.476563 125.567383,129.453125 C125.684571,129.429687 125.770508,129.397461 125.825195,129.356445 C125.879883,129.315429 125.930664,129.25586 125.977539,129.177734 C126.024414,129.099609 126.054687,129.006836 126.068359,128.899414 C126.082031,128.791992 126.088867,128.658204 126.088867,128.498047 L126.088867,122.820312 C126.088867,122.472655 125.985353,122.242188 125.77832,122.128906 C125.571288,122.015624 125.223635,121.957031 124.735352,121.953125 L124.735352,129.505859 Z M135.34082,131 L135.34082,120.453125 L139.741211,120.453125 L139.741211,121.917969 L137.473633,121.917969 L137.473633,124.789062 L139.079102,124.789062 L139.079102,126.289062 L137.473633,126.289062 L137.473633,129.535156 L139.741211,129.535156 L139.741211,131 L135.34082,131 Z M148.635742,124.841797 L149.245117,124.841797 C149.409181,124.841797 149.549804,124.78711 149.666992,124.677734 C149.78418,124.568359 149.86914,124.429688 149.921875,124.261719 C149.97461,124.093749 150.011719,123.939454 150.033203,123.798828 C150.054688,123.658202 150.06543,123.525391 150.06543,123.400391 C150.06543,123.27539 150.056641,123.146485 150.039062,123.013672 C150.021484,122.880859 149.990235,122.733399 149.945312,122.571289 C149.90039,122.409179 149.826172,122.276368 149.722656,122.172852 C149.61914,122.069335 149.493165,122.017578 149.344727,122.017578 L148.635742,122.017578 L148.635742,124.841797 Z M146.50293,131 L146.50293,120.453125 L148.823242,120.453125 C149.350589,120.453125 149.814451,120.502929 150.214844,120.602539 C150.615236,120.702149 150.965819,120.858397 151.266602,121.071289 C151.567384,121.284181 151.795898,121.571287 151.952148,121.932617 C152.108399,122.293947 152.186523,122.72656 152.186523,123.230469 C152.186523,123.44922 152.178711,123.64453 152.163086,123.816406 C152.147461,123.988282 152.111328,124.184569 152.054688,124.405273 C151.998047,124.625978 151.920899,124.821288 151.823242,124.991211 C151.725585,125.161134 151.584962,125.328124 151.401367,125.492188 C151.217773,125.656251 151.000978,125.792968 150.750977,125.902344 C151.383792,127.910166 151.934568,129.609368 152.40332,131 L150.194336,131 L148.987305,126.142578 L148.635742,126.142578 L148.635742,131 L146.50293,131 Z" id="RECORDER"></path>
                    <path d="M5.27636719,90 L6.40136719,90 C7.42090354,90 8.25585612,89.9414068 8.90625,89.8242188 C9.55664388,89.7070307 10.1308569,89.4873063 10.6289062,89.1650391 C11.1269556,88.8427718 11.4843739,88.3828155 11.7011719,87.7851562 C11.9179698,87.187497 12.0263672,86.4257859 12.0263672,85.5 C12.0263672,84.3749944 11.9443368,83.4638707 11.7802734,82.7666016 C11.6162101,82.0693325 11.3144553,81.4980491 10.875,81.0527344 C10.4355447,80.6074196 9.86719099,80.2998055 9.16992188,80.1298828 C8.47265276,79.9599601 7.54981043,79.875 6.40136719,79.875 L5.27636719,79.875 L5.27636719,90 Z M0.776367188,108 L0.776367188,76.5 L8.65136719,76.5 C13.9013934,76.5 16.5263672,79.49997 16.5263672,85.5 C16.5263672,88.0664191 15.8496161,90.0205011 14.4960938,91.3623047 C13.1425714,92.7041083 11.1943487,93.375 8.65136719,93.375 L5.27636719,93.375 L5.27636719,108 L0.776367188,108 Z M32.5751953,90 L33.7001953,90 C35.5752047,90 36.9814406,89.6044961 37.9189453,88.8134766 C38.85645,88.022457 39.3251953,86.7304777 39.3251953,84.9375 C39.3251953,83.1445223 38.85645,81.852543 37.9189453,81.0615234 C36.9814406,80.2705039 35.5752047,79.875 33.7001953,79.875 L32.5751953,79.875 L32.5751953,90 Z M28.0751953,108 L28.0751953,76.5 L33.7001953,76.5 C37.0517746,76.5 39.5771399,77.1503841 41.2763672,78.4511719 C42.9755944,79.7519596 43.8251953,81.9140474 43.8251953,84.9375 C43.8251953,86.8125094 43.4912143,88.3828062 42.8232422,89.6484375 C42.1552701,90.9140688 41.1767643,91.7812477 39.8876953,92.25 L44.9501953,108 L40.4853516,108 L35.9501953,93.375 L32.5751953,93.375 L32.5751953,108 L28.0751953,108 Z M64.6728516,108.316406 C63.0908124,108.316406 61.7343807,108.076174 60.6035156,107.595703 C59.4726506,107.115232 58.5732455,106.412114 57.9052734,105.486328 C57.2373013,104.560542 56.7509781,103.473639 56.4462891,102.225586 C56.1416,100.977533 55.9892578,99.527352 55.9892578,97.875 L55.9892578,86.4492188 C55.9892578,84.7968667 56.1416,83.3554749 56.4462891,82.125 C56.7509781,80.8945251 57.2373013,79.8251999 57.9052734,78.9169922 C58.5732455,78.0087845 59.4726506,77.3261742 60.6035156,76.8691406 C61.7343807,76.4121071 63.0908124,76.1835938 64.6728516,76.1835938 C67.7431794,76.1835938 69.958001,77.0624912 71.3173828,78.8203125 C72.6767646,80.5781338 73.3564453,83.1210771 73.3564453,86.4492188 L73.3564453,97.875 C73.3564453,99.5039144 73.2011734,100.942377 72.890625,102.19043 C72.5800766,103.438483 72.0908237,104.528316 71.4228516,105.459961 C70.7548795,106.391606 69.8554744,107.100584 68.7246094,107.586914 C67.5937443,108.073245 66.2431719,108.316406 64.6728516,108.316406 Z M64.6728516,104.625 C66.2548907,104.625 67.3476532,104.150395 67.9511719,103.201172 C68.5546905,102.251948 68.8564453,100.851572 68.8564453,99 L68.8564453,85.3242188 C68.8564453,83.4960846 68.5576202,82.1308639 67.9599609,81.2285156 C67.3623017,80.3261674 66.2666095,79.875 64.6728516,79.875 C63.0790936,79.875 61.9834014,80.3261674 61.3857422,81.2285156 C60.7880829,82.1308639 60.4892578,83.4960846 60.4892578,85.3242188 L60.4892578,99 C60.4892578,100.851572 60.7910126,102.251948 61.3945313,103.201172 C61.9980499,104.150395 63.0908124,104.625 64.6728516,104.625 Z M94.7314453,108.316406 C93.2900319,108.316406 92.0390678,108.11133 90.9785156,107.701172 C89.9179634,107.291014 89.0537143,106.734379 88.3857422,106.03125 C87.7177701,105.328121 87.1845723,104.431646 86.7861328,103.341797 C86.3876933,102.251948 86.1123054,101.103522 85.9599609,99.8964844 C85.8076164,98.6894471 85.7314453,97.3007891 85.7314453,95.7304688 L85.7314453,87.75 C85.7314453,80.0390239 88.7900085,76.1835938 94.9072266,76.1835938 C96.3720776,76.1835938 97.6435493,76.4033181 98.7216797,76.8427734 C99.7998101,77.2822288 100.672848,77.9238239 101.34082,78.7675781 C102.008792,79.6113323 102.512694,80.5986272 102.852539,81.7294922 C103.192385,82.8603572 103.391601,84.1699144 103.450195,85.6582031 C103.461914,85.8691417 103.467773,86.1914041 103.467773,86.625 L98.9677734,86.625 L98.9677734,85.6757812 C98.9560546,84.9374963 98.9179691,84.3017605 98.8535156,83.7685547 C98.7890622,83.2353489 98.6718758,82.7109401 98.5019531,82.1953125 C98.3320304,81.6796849 98.1005874,81.2607438 97.8076172,80.9384766 C97.514647,80.6162093 97.1250024,80.3583994 96.6386719,80.1650391 C96.1523413,79.9716787 95.5751987,79.875 94.9072266,79.875 C93.9931595,79.875 93.2226594,80.0419905 92.5957031,80.3759766 C91.9687469,80.7099626 91.4882829,81.1962859 91.1542969,81.8349609 C90.8203108,82.473636 90.5830085,83.176754 90.4423828,83.9443359 C90.3017571,84.7119179 90.2314453,85.6054637 90.2314453,86.625 L90.2314453,96.75 C90.2314453,97.5000037 90.2548826,98.1767548 90.3017578,98.7802734 C90.348633,99.3837921 90.4277338,99.9990203 90.5390625,100.625977 C90.6503912,101.252933 90.814452,101.79492 91.03125,102.251953 C91.248048,102.708987 91.5175765,103.122068 91.8398438,103.491211 C92.162111,103.860353 92.5664038,104.141601 93.0527344,104.334961 C93.5390649,104.528321 94.0986296,104.625 94.7314453,104.625 C95.4814491,104.625 96.1318332,104.478517 96.6826172,104.185547 C97.2334012,103.892577 97.6699203,103.514651 97.9921875,103.051758 C98.3144547,102.588865 98.569335,102.000004 98.7568359,101.285156 C98.9443369,100.570309 99.0703122,99.8613316 99.1347656,99.1582031 C99.1992191,98.4550746 99.2314453,97.6523483 99.2314453,96.75 L99.2314453,95.625 L94.7314453,95.625 L94.7314453,92.2851562 L103.731445,92.2851562 L103.731445,108 L100.356445,108 L99.2314453,104.625 C98.3525347,107.08595 96.8525497,108.316406 94.7314453,108.316406 Z M120.870117,90 L121.995117,90 C123.870127,90 125.276363,89.6044961 126.213867,88.8134766 C127.151372,88.022457 127.620117,86.7304777 127.620117,84.9375 C127.620117,83.1445223 127.151372,81.852543 126.213867,81.0615234 C125.276363,80.2705039 123.870127,79.875 121.995117,79.875 L120.870117,79.875 L120.870117,90 Z M116.370117,108 L116.370117,76.5 L121.995117,76.5 C125.346696,76.5 127.872062,77.1503841 129.571289,78.4511719 C131.270516,79.7519596 132.120117,81.9140474 132.120117,84.9375 C132.120117,86.8125094 131.786136,88.3828062 131.118164,89.6484375 C130.450192,90.9140688 129.471686,91.7812477 128.182617,92.25 L133.245117,108 L128.780273,108 L124.245117,93.375 L120.870117,93.375 L120.870117,108 L116.370117,108 Z M144.84668,108 L144.84668,76.5 L157.22168,76.5 L157.22168,79.875 L149.34668,79.875 L149.34668,90 L154.97168,90 L154.97168,93.375 L149.34668,93.375 L149.34668,104.625 L157.22168,104.625 L157.22168,108 L144.84668,108 Z M177.19043,108.316406 C174.354478,108.316406 172.189461,107.484383 170.695312,105.820312 C169.201164,104.156242 168.366212,101.882827 168.19043,99 L172.69043,97.875 C172.913087,102.375023 174.413072,104.625 177.19043,104.625 C179.440441,104.625 180.56543,103.500011 180.56543,101.25 C180.56543,100.582028 180.47461,99.96387 180.292969,99.3955078 C180.111327,98.8271456 179.83301,98.3056664 179.458008,97.8310547 C179.083006,97.3564429 178.743166,96.9755874 178.438477,96.6884766 C178.133788,96.4013658 177.717776,96.0468771 177.19043,95.625 L171.56543,91.125 C170.534175,90.3164022 169.710941,89.2880922 169.095703,88.0400391 C168.480466,86.7919859 168.172852,85.3711017 168.172852,83.7773438 C168.172852,81.4570196 168.893547,79.611335 170.334961,78.2402344 C171.776374,76.8691338 173.686512,76.1835938 176.06543,76.1835938 C178.62013,76.1835938 180.650383,76.8076109 182.15625,78.0556641 C183.662117,79.3037172 184.590819,81.0703011 184.942383,83.3554688 C184.977539,83.6015637 185.018554,83.9414041 185.06543,84.375 L180.56543,85.5 C180.553711,85.3007803 180.524414,85.0019551 180.477539,84.6035156 C180.278319,83.173821 179.830082,82.0283246 179.132812,81.1669922 C178.435543,80.3056598 177.413093,79.875 176.06543,79.875 C174.987299,79.875 174.155276,80.1767548 173.569336,80.7802734 C172.983396,81.3837921 172.69043,82.224604 172.69043,83.3027344 C172.69043,85.0722745 173.440422,86.5546815 174.94043,87.75 L180.56543,92.25 C183.565445,94.6757934 185.06543,97.576155 185.06543,100.951172 C185.06543,103.259777 184.353523,105.064447 182.929688,106.365234 C181.505852,107.666022 179.592785,108.316406 177.19043,108.316406 Z M205.561523,108.316406 C202.725572,108.316406 200.560554,107.484383 199.066406,105.820312 C197.572258,104.156242 196.737306,101.882827 196.561523,99 L201.061523,97.875 C201.284181,102.375023 202.784166,104.625 205.561523,104.625 C207.811535,104.625 208.936523,103.500011 208.936523,101.25 C208.936523,100.582028 208.845704,99.96387 208.664062,99.3955078 C208.482421,98.8271456 208.204103,98.3056664 207.829102,97.8310547 C207.4541,97.3564429 207.114259,96.9755874 206.80957,96.6884766 C206.504881,96.4013658 206.08887,96.0468771 205.561523,95.625 L199.936523,91.125 C198.905268,90.3164022 198.082034,89.2880922 197.466797,88.0400391 C196.851559,86.7919859 196.543945,85.3711017 196.543945,83.7773438 C196.543945,81.4570196 197.264641,79.611335 198.706055,78.2402344 C200.147468,76.8691338 202.057605,76.1835938 204.436523,76.1835938 C206.991224,76.1835938 209.021477,76.8076109 210.527344,78.0556641 C212.033211,79.3037172 212.961912,81.0703011 213.313477,83.3554688 C213.348633,83.6015637 213.389648,83.9414041 213.436523,84.375 L208.936523,85.5 C208.924805,85.3007803 208.895508,85.0019551 208.848633,84.6035156 C208.649413,83.173821 208.201175,82.0283246 207.503906,81.1669922 C206.806637,80.3056598 205.784186,79.875 204.436523,79.875 C203.358393,79.875 202.52637,80.1767548 201.94043,80.7802734 C201.354489,81.3837921 201.061523,82.224604 201.061523,83.3027344 C201.061523,85.0722745 201.811516,86.5546815 203.311523,87.75 L208.936523,92.25 C211.936538,94.6757934 213.436523,97.576155 213.436523,100.951172 C213.436523,103.259777 212.724616,105.064447 211.300781,106.365234 C209.876946,107.666022 207.963879,108.316406 205.561523,108.316406 Z" id="PROGRESS"></path>
                    <path d="M105.666927,32.3301964 C106.606642,32.0898042 107.546357,32.6361501 107.808603,33.575865 C107.896019,33.9255264 108.136411,34.2096263 108.464218,34.384457 C108.81388,34.5811415 109.229103,34.6248492 109.666179,34.51558 C110.103256,34.4063108 110.431064,34.1440648 110.627748,33.8162573 C110.824433,33.5103035 110.889994,33.1387883 110.780725,32.7891269 C110.452917,31.5871659 109.666179,30.6474509 108.617195,30.0792512 C107.546357,29.4891976 106.235127,29.3143669 104.923897,29.6640283 C103.612667,30.0136897 102.563682,30.8222816 101.951775,31.8712658 C101.339868,32.8765423 101.121329,34.1003571 101.427283,35.2804643 C101.973629,37.3128711 103.328567,38.9082012 105.076874,39.86977 C106.868888,40.8531927 109.054272,41.1591464 111.239656,40.5690928 C113.425039,39.9790392 115.173346,38.6241013 116.22233,36.8757944 C117.271314,35.1711951 117.64283,33.0950806 117.096484,31.0626738 C116.331599,28.1998212 114.408462,25.9270222 111.938978,24.5720843 C109.425787,23.1952926 106.344396,22.7800697 103.284859,23.5886617 C100.225322,24.4191075 97.7776921,26.3203913 96.2916313,28.768021 C94.8274242,31.171943 94.3029321,34.1003571 95.0678164,36.9632097 C96.051239,40.6565081 98.5425764,43.5849222 101.733237,45.3332292 C104.967604,47.1033899 108.923149,47.6497359 112.878693,46.6007517 C116.812384,45.5517675 119.98119,43.082284 121.882474,39.9353315 C123.783758,36.8320867 124.461227,33.051373 123.477804,29.3580746 C122.253989,24.8343304 119.23816,21.2284473 115.304469,19.0867713 C111.348925,16.9232415 106.497373,16.2457726 101.689529,17.5351489 C96.8816848,18.8245253 93.0135558,21.8403548 90.6751952,25.68663 C88.3368347,29.5110514 87.5063889,34.122211 88.7302038,38.667809 C90.172557,44.0438528 93.7565862,48.2834971 98.4114534,50.8185422 C103.088174,53.3754411 108.81388,54.184033 114.517731,52.6542645 C120.221582,51.1244959 124.76718,47.5623205 127.542618,43.0167225 C130.296201,38.4929783 131.279624,33.0295191 129.837271,27.6534753 C128.176379,21.4469857 124.02415,16.5298724 118.648106,13.6014583 C113.250209,10.6511904 106.628496,9.73332923 100.050491,11.4816362 C93.4724863,13.2517969 88.2057117,17.3603182 85.0150515,22.605239 C81.8243914,27.828306 80.6879919,34.1440648 82.3488835,40.3505544 C84.2283134,47.3874898 88.9487421,52.9602182 95.0241087,56.2820014 C101.143183,59.6256384 108.639049,60.6746225 116.091207,58.6859234 C123.543366,56.6972243 129.509463,52.0205032 133.1372,46.0762596 C136.743083,40.1538699 138.032459,32.9858115 136.153029,25.9270222 C134.033207,18.059641 128.766433,11.8094437 121.969889,8.09429148 C115.129638,4.35728541 106.737765,3.17717823 98.4114534,5.40626957 C90.0851416,7.63536091 83.4197214,12.8584279 79.3549078,19.5019942 C75.311948,26.1237067 73.8695948,34.1659186 75.9675631,42.0332998 C76.2079553,42.9730148 75.6616094,43.9127298 74.7218945,44.1749758 C73.7821795,44.415368 72.8424645,43.8690221 72.5802185,42.9293071 C70.2200041,34.1003571 71.837188,25.0965764 76.3609322,17.6881258 C80.8628226,10.301529 88.2712732,4.48840843 97.4935923,2.01892488 C106.715911,-0.45055866 116.025646,0.882525377 123.630781,5.01290051 C131.25777,9.16512948 137.158306,16.1583572 139.51852,24.9873072 C141.660196,32.9858115 140.195989,41.1372925 136.109322,47.8464204 C132.022654,54.5336944 125.33538,59.7786152 116.987215,62.0295604 C108.639049,64.2586517 100.225322,63.0566907 93.3413633,59.3196847 C86.4355509,55.5608247 81.1032148,49.2232121 78.9615388,41.2247079 C77.0384011,34.0566495 78.3496313,26.757468 82.0210759,20.7476629 C85.6706666,14.7597117 91.6586179,10.0611368 99.13263,8.07243764 C106.606642,6.06188467 114.146216,7.1545765 120.287144,10.4982135 C126.47178,13.8637044 131.25777,19.5457019 133.180908,26.6919065 C134.885507,33.0295191 133.727253,39.4764009 130.471032,44.7650294 C127.236664,50.0536579 121.948036,54.2058869 115.370031,55.9541938 C108.792026,57.7243546 102.126606,56.7627858 96.6850003,53.8125178 C91.2652488,50.8622499 87.0474583,45.8795751 85.3428591,39.607524 C85.3210052,39.5419625 85.2991514,39.4764009 85.2772976,39.4108394 C83.8349443,33.9473803 84.8620747,28.3965058 87.6375119,23.8290539 C90.4129492,19.2834559 94.9585472,15.6994266 100.618691,14.1478042 C100.684252,14.1259504 100.749814,14.1040966 100.815375,14.0822427 C106.497373,12.5961818 112.223078,13.4266276 116.899799,15.9616727 C121.642082,18.5404254 125.313526,22.8893389 126.777733,28.3746519 C128.023402,33.0295191 127.171102,37.7718017 124.789034,41.6836385 C122.42882,45.5299137 118.604398,48.567597 113.818408,49.8788272 C113.752847,49.900681 113.687285,49.9225349 113.621724,49.9443887 C108.81388,51.2119112 103.984182,50.4907346 100.006783,48.3490586 C96.0293852,46.1855288 92.9261404,42.5359381 91.6586179,37.9247785 C91.636764,37.859217 91.6149102,37.7936555 91.5930564,37.7062402 C90.6096337,33.9255264 91.3089565,30.0573973 93.253948,26.888591 C95.1989394,23.7197847 98.3677457,21.2065935 102.32329,20.1576093 C106.278835,19.1086252 110.278087,19.6768249 113.534308,21.4469857 C116.834238,23.2390003 119.391137,26.2548298 120.396413,30.0792512 C121.205005,33.0732268 120.658659,36.1109101 119.128891,38.6022475 C117.620976,41.071731 115.151492,43.0167225 112.070101,43.8471683 C108.98871,44.6776141 105.885466,44.2186835 103.328567,42.8418918 C100.749814,41.4432463 98.7611148,39.0830319 97.9525228,36.0890563 C97.3843231,33.9473803 97.7776921,31.7401428 98.870384,29.9481282 C99.9630758,28.1779674 101.733237,26.7793218 103.91862,26.1892682 C106.125858,25.5992147 108.354949,25.9270222 110.168818,26.9104449 C112.026394,27.9157213 113.446893,29.6203206 114.036947,31.7619966 C114.386608,33.0732268 114.146216,34.4063108 113.490601,35.5208565 C112.834986,36.5916945 111.764148,37.4221403 110.452917,37.7936555 C109.119833,38.1433169 107.786749,37.9466324 106.694058,37.3565788 C105.557658,36.7446714 104.77092,35.7831026 104.421258,34.4718724 C104.180866,33.5321574 104.727212,32.5924424 105.666927,32.3301964 Z" id="spiral" fill-rule="nonzero"></path>
                </g>
            </g>
        </g>
    </g>
</svg>