<?xml version="1.0" encoding="UTF-8"?>
<svg width="101px" height="15px" viewBox="0 0 101 15" version="1.1" xmlns="http://www.w3.org/2000/svg" xmlns:xlink="http://www.w3.org/1999/xlink">
    <!-- Generator: Sketch 46 (44423) - http://www.bohemiancoding.com/sketch -->
    <title>Group 4</title>
    <desc>Created with Sketch.</desc>
    <defs></defs>
    <g id="Page-1" stroke="none" stroke-width="1" fill="none" fill-rule="evenodd">
        <g id="iPhone-7-plus-got-it" transform="translate(-226.000000, -562.000000)" fill="#FFFFFF">
            <g id="Group-4" transform="translate(226.000000, 562.000000)">
                <path d="M8.384,2.264 C8.384,1.896 8.032,1.704 7.344,1.704 C7.28,1.704 6.64,1.736 5.408,1.8 C4.144,1.88 3.488,1.912 3.44,1.912 C3.216,1.864 3.104,1.832 3.104,1.832 C2.944,1.864 2.8,1.928 2.688,2.024 C2.32,2.056 2.048,2.104 1.888,2.168 C1.632,2.264 1.52,2.44 1.52,2.664 C1.52,2.92 1.808,3.08 2.384,3.144 C1.664,5.88 1.248,8.392 1.152,10.664 C0.944,10.808 0.832,10.936 0.816,11.048 C0.848,12.328 1.024,13.272 1.344,13.944 C1.408,14.104 1.536,14.2 1.712,14.2 C2,14.136 2.16,13.992 2.208,13.752 C2.096,12.376 2.048,11.48 2.048,11.08 C2.048,10.52 2.112,9.656 2.256,8.504 C3.888,8.504 5.456,8.248 6.96,7.736 C7.392,7.592 7.616,7.368 7.632,7.08 C7.6,6.792 7.472,6.632 7.216,6.6 L6.784,6.728 C5.44,7.176 3.984,7.432 2.384,7.512 C2.64,5.912 2.992,4.392 3.44,2.968 C4.592,2.872 5.984,2.792 7.616,2.744 C7.744,2.776 7.856,2.792 7.968,2.792 C8.192,2.728 8.32,2.552 8.384,2.264 Z M12.464,1.704 C12.464,1.032 12.192,0.68 11.664,0.616 C11.248,0.76 11.024,1 10.992,1.352 C10.992,1.464 11.008,1.56 11.008,1.656 C11.008,2.216 11.312,2.552 11.936,2.664 C12.288,2.632 12.464,2.312 12.464,1.704 Z M11.6,7.736 C11.6,7.224 11.296,6.936 10.704,6.904 C10.544,7 10.464,7.128 10.464,7.272 C10.464,7.32 10.48,7.448 10.512,7.64 C10.064,9.848 9.856,11.144 9.856,11.56 C9.856,12.072 9.936,12.472 10.096,12.792 C10.304,13.192 10.528,13.4 10.784,13.4 C10.976,13.4 11.088,13.288 11.088,13.064 C11.088,12.808 10.976,12.552 10.768,12.328 C10.768,11.496 10.944,10.328 11.312,8.824 C11.424,8.408 11.52,8.056 11.6,7.736 Z M19.44,8.28 C19.44,8.12 19.36,7.96 19.216,7.8 C19.072,7.672 18.912,7.592 18.72,7.576 C17.408,8.36 16.128,9.576 14.864,11.224 C14.864,9.928 14.976,8.728 15.232,7.624 C15.28,7.4 15.328,7.224 15.36,7.064 C15.36,6.872 15.296,6.68 15.168,6.504 C15.008,6.344 14.848,6.248 14.672,6.248 C14.544,6.248 14.48,6.344 14.448,6.504 C14.096,8.152 13.936,9.464 13.936,10.44 C13.936,11.368 14.032,12.104 14.224,12.68 C14.352,13.064 14.56,13.256 14.88,13.256 C14.944,13.256 15.024,13.128 15.136,12.904 C15.232,12.696 15.312,12.488 15.408,12.264 C15.984,11.112 17.04,9.992 18.56,8.904 L18.288,11.608 C18.224,12.056 18.192,12.408 18.176,12.632 C18.176,12.808 18.24,12.968 18.368,13.128 C18.496,13.272 18.656,13.352 18.832,13.352 C18.96,13.352 19.024,13.256 19.056,13.096 C19.152,12.232 19.216,11.512 19.28,10.952 C19.376,9.896 19.44,9 19.44,8.28 Z M24.032,1.704 C24.032,1.032 23.76,0.68 23.232,0.616 C22.816,0.76 22.592,1 22.56,1.352 C22.56,1.464 22.576,1.56 22.576,1.656 C22.576,2.216 22.88,2.552 23.504,2.664 C23.856,2.632 24.032,2.312 24.032,1.704 Z M23.168,7.736 C23.168,7.224 22.864,6.936 22.272,6.904 C22.112,7 22.032,7.128 22.032,7.272 C22.032,7.32 22.048,7.448 22.08,7.64 C21.632,9.848 21.424,11.144 21.424,11.56 C21.424,12.072 21.504,12.472 21.664,12.792 C21.872,13.192 22.096,13.4 22.352,13.4 C22.544,13.4 22.656,13.288 22.656,13.064 C22.656,12.808 22.544,12.552 22.336,12.328 C22.336,11.496 22.512,10.328 22.88,8.824 C22.992,8.408 23.088,8.056 23.168,7.736 Z M29.584,7.064 C29.536,6.92 29.504,6.808 29.488,6.728 C29.408,6.44 29.296,6.28 29.152,6.232 C28.864,6.152 28.624,6.104 28.448,6.104 C28,6.104 27.712,6.232 27.616,6.488 C26.88,6.76 26.528,7.24 26.528,7.944 C26.528,8.232 26.576,8.52 26.688,8.824 C26.816,9.144 26.928,9.448 27.04,9.736 C27.504,11.048 27.744,11.832 27.744,12.056 C27.744,12.568 27.36,12.808 26.592,12.808 C26.448,12.808 26.24,12.792 25.968,12.744 C25.68,12.712 25.52,12.696 25.456,12.696 C25.184,12.696 25.056,12.904 25.056,13.304 C25.056,13.656 25.552,13.848 26.544,13.848 C27.152,13.848 27.648,13.736 28.032,13.528 C28.48,13.256 28.704,12.872 28.704,12.344 C28.704,11.928 28.528,11.24 28.192,10.264 C28.048,9.88 27.904,9.496 27.744,9.112 C27.552,8.632 27.472,8.312 27.472,8.168 C27.472,7.704 27.728,7.464 28.272,7.464 C28.368,7.464 28.512,7.48 28.704,7.496 C28.896,7.528 29.04,7.528 29.136,7.528 C29.408,7.528 29.552,7.384 29.584,7.064 Z M36.528,13.304 C36.464,12.872 36.432,12.536 36.4,12.28 C36.304,11.288 36.272,10.552 36.272,10.056 C36.272,9.88 36.272,9.608 36.304,9.256 C36.336,8.92 36.352,8.696 36.352,8.584 C36.352,8.36 36.288,8.168 36.16,7.976 C36.016,7.8 35.856,7.704 35.664,7.704 C35.344,7.704 34.704,8.088 33.76,8.856 C32.928,9.544 32.256,10.2 31.744,10.824 C31.936,8.92 32.336,6.376 32.976,3.176 C33.12,2.392 33.2,1.976 33.2,1.928 C33.2,1.736 33.136,1.544 33.008,1.352 C32.88,1.176 32.72,1.08 32.56,1.08 C32.448,1.08 32.368,1.16 32.32,1.288 C32.288,1.368 32.24,1.576 32.176,1.928 L31.872,3.72 C31.456,6.04 31.248,7.256 31.248,7.352 C31.008,8.872 30.896,10.184 30.896,11.272 C30.896,11.336 30.896,11.48 30.912,11.672 L30.912,12.072 C30.912,12.104 30.896,12.2 30.896,12.36 C30.864,12.52 30.864,12.616 30.864,12.648 C30.864,12.824 30.928,12.984 31.072,13.144 C31.216,13.304 31.376,13.384 31.568,13.384 C31.648,13.384 31.776,13.176 31.952,12.792 C32.048,12.552 32.16,12.312 32.288,12.056 C32.8,11.08 33.808,10.088 35.328,9.064 L35.44,11.896 C35.472,13.016 35.76,13.592 36.288,13.592 C36.448,13.592 36.528,13.496 36.528,13.304 Z M49.312,13.304 C49.248,12.872 49.216,12.536 49.184,12.28 C49.088,11.288 49.056,10.552 49.056,10.056 C49.056,9.88 49.056,9.608 49.088,9.256 C49.12,8.92 49.136,8.696 49.136,8.584 C49.136,8.36 49.072,8.168 48.944,7.976 C48.8,7.8 48.64,7.704 48.448,7.704 C48.128,7.704 47.488,8.088 46.544,8.856 C45.712,9.544 45.04,10.2 44.528,10.824 C44.72,8.92 45.12,6.376 45.76,3.176 C45.904,2.392 45.984,1.976 45.984,1.928 C45.984,1.736 45.92,1.544 45.792,1.352 C45.664,1.176 45.504,1.08 45.344,1.08 C45.232,1.08 45.152,1.16 45.104,1.288 C45.072,1.368 45.024,1.576 44.96,1.928 L44.656,3.72 C44.24,6.04 44.032,7.256 44.032,7.352 C43.792,8.872 43.68,10.184 43.68,11.272 C43.68,11.336 43.68,11.48 43.696,11.672 L43.696,12.072 C43.696,12.104 43.68,12.2 43.68,12.36 C43.648,12.52 43.648,12.616 43.648,12.648 C43.648,12.824 43.712,12.984 43.856,13.144 C44,13.304 44.16,13.384 44.352,13.384 C44.432,13.384 44.56,13.176 44.736,12.792 C44.832,12.552 44.944,12.312 45.072,12.056 C45.584,11.08 46.592,10.088 48.112,9.064 L48.224,11.896 C48.256,13.016 48.544,13.592 49.072,13.592 C49.232,13.592 49.312,13.496 49.312,13.304 Z M57.008,12.856 C57.008,13.272 56.512,13.496 55.552,13.496 C54.304,13.496 53.408,12.904 52.864,11.72 C52.736,11.752 52.576,11.768 52.416,11.768 C51.856,11.768 51.408,11.672 51.088,11.464 C50.688,11.24 50.496,11 50.496,10.744 C50.496,10.392 50.656,10.216 50.976,10.216 C51.024,10.216 51.184,10.312 51.456,10.504 C51.728,10.68 52,10.76 52.272,10.76 C52.368,10.76 52.48,10.76 52.576,10.744 C52.528,10.488 52.512,10.248 52.512,10.008 C52.512,9.24 52.704,8.488 53.088,7.768 C53.52,6.952 54.064,6.536 54.72,6.536 C55.12,6.536 55.52,6.76 55.936,7.176 C56.224,7.496 56.384,7.864 56.384,8.28 C56.384,8.92 56.112,9.528 55.584,10.136 C55.104,10.696 54.512,11.128 53.808,11.432 C54.128,12.104 54.624,12.44 55.328,12.44 C55.472,12.44 55.696,12.424 56,12.36 C56.288,12.328 56.464,12.312 56.544,12.312 C56.672,12.312 56.768,12.376 56.864,12.488 C56.96,12.616 57.008,12.728 57.008,12.856 Z M55.44,8.36 C55.44,8.168 55.344,7.992 55.184,7.832 C55.008,7.688 54.832,7.608 54.656,7.608 C54.336,7.608 54.064,7.864 53.84,8.344 C53.616,8.824 53.504,9.336 53.504,9.848 C53.504,10.04 53.52,10.264 53.552,10.488 C54.064,10.264 54.512,9.96 54.88,9.56 C55.248,9.192 55.44,8.792 55.44,8.36 Z M63.824,7.352 C63.808,7.176 63.744,7 63.616,6.84 C63.456,6.68 63.296,6.6 63.136,6.6 C62.496,6.6 61.872,6.84 61.264,7.32 C60.624,7.816 60.128,8.424 59.744,9.144 C59.68,8.824 59.584,8.376 59.456,7.768 C59.328,7.192 59.088,6.888 58.736,6.888 C58.656,6.888 58.592,6.952 58.528,7.08 C58.448,7.208 58.416,7.32 58.416,7.416 C58.416,7.672 58.448,8.024 58.528,8.456 C58.56,8.68 58.656,8.904 58.848,9.096 C58.944,9.56 59.008,10.024 59.008,10.488 C59.008,10.904 58.96,11.352 58.88,11.832 C58.8,12.232 58.736,12.504 58.704,12.664 C58.704,12.888 58.768,13.064 58.896,13.256 C59.024,13.448 59.168,13.56 59.344,13.56 C59.552,13.56 59.728,13.016 59.872,11.944 C60.128,9.896 60.96,8.568 62.336,7.928 C62.528,7.992 62.624,8.024 62.656,8.024 C62.816,8.024 63.024,7.96 63.312,7.832 C63.648,7.688 63.824,7.528 63.824,7.352 Z M70.512,12.856 C70.512,13.272 70.016,13.496 69.056,13.496 C67.808,13.496 66.912,12.904 66.368,11.72 C66.24,11.752 66.08,11.768 65.92,11.768 C65.36,11.768 64.912,11.672 64.592,11.464 C64.192,11.24 64,11 64,10.744 C64,10.392 64.16,10.216 64.48,10.216 C64.528,10.216 64.688,10.312 64.96,10.504 C65.232,10.68 65.504,10.76 65.776,10.76 C65.872,10.76 65.984,10.76 66.08,10.744 C66.032,10.488 66.016,10.248 66.016,10.008 C66.016,9.24 66.208,8.488 66.592,7.768 C67.024,6.952 67.568,6.536 68.224,6.536 C68.624,6.536 69.024,6.76 69.44,7.176 C69.728,7.496 69.888,7.864 69.888,8.28 C69.888,8.92 69.616,9.528 69.088,10.136 C68.608,10.696 68.016,11.128 67.312,11.432 C67.632,12.104 68.128,12.44 68.832,12.44 C68.976,12.44 69.2,12.424 69.504,12.36 C69.792,12.328 69.968,12.312 70.048,12.312 C70.176,12.312 70.272,12.376 70.368,12.488 C70.464,12.616 70.512,12.728 70.512,12.856 Z M68.944,8.36 C68.944,8.168 68.848,7.992 68.688,7.832 C68.512,7.688 68.336,7.608 68.16,7.608 C67.84,7.608 67.568,7.864 67.344,8.344 C67.12,8.824 67.008,9.336 67.008,9.848 C67.008,10.04 67.024,10.264 67.056,10.488 C67.568,10.264 68.016,9.96 68.384,9.56 C68.752,9.192 68.944,8.792 68.944,8.36 Z" id="Finish-here"></path>
                <g id="Group-3" transform="translate(89.000000, 7.500000) scale(-1, -1) rotate(5.000000) translate(-89.000000, -7.500000) translate(77.000000, 2.000000)">
                    <path d="M6.86210656,9.48013115 C6.86210656,9.23644262 6.74838525,9.09022951 6.53718852,9.009 C5.48120492,8.58660656 4.00282787,8.0017541 2.10205738,7.27068852 C3.40172951,5.71108197 4.58768033,4.34642623 5.64366393,3.17672131 C5.87110656,2.91678689 5.98482787,2.73808197 5.98482787,2.64060656 C5.98482787,2.51063934 5.93609016,2.38067213 5.85486066,2.25070492 C5.75738525,2.13698361 5.65990984,2.072 5.54618852,2.072 C5.3512377,2.072 5.15628689,2.15322951 4.96133607,2.29944262 C4.75013934,2.54313115 4.60392623,2.73808197 4.52269672,2.88429508 C4.23027049,3.22545902 4.00282787,3.50163934 3.82412295,3.69659016 C2.75189344,4.94752459 1.95584426,5.88978689 1.41972951,6.50713115 C1.27351639,6.66959016 1.12730328,6.81580328 0.997336066,6.9782623 C0.834877049,7.17321311 0.769893443,7.33567213 0.769893443,7.48188525 C0.769893443,7.74181967 0.883614754,7.90427869 1.14354918,7.9855082 C2.39448361,8.48913115 3.90535246,9.07398361 5.69240164,9.72381967 C5.87110656,9.90252459 6.09854918,10 6.39097541,10 C6.69964754,10 6.86210656,9.82129508 6.86210656,9.48013115 Z" id="&lt;"></path>
                    <path d="M14.0908505,-5.16826539 C14.0908505,-5.36026539 13.9628505,-5.58426539 13.7228505,-5.80826539 C13.4668505,-6.03226539 13.2748505,-6.14426539 13.1148505,-6.14426539 C12.9868505,-6.14426539 12.9068505,-6.03226539 12.8428505,-5.82426539 C12.1388505,-3.47226539 11.8028505,-1.28026539 11.8028505,0.751734607 C11.8028505,1.79173461 10.6307935,12.7683338 10.6947935,13.4083338 C10.5987935,13.5683338 10.5507935,13.7603338 10.5507935,14.0003338 C10.5507935,14.0643338 10.5507935,14.2403338 10.5667935,14.5443338 C10.5667935,14.8643338 10.5827935,15.0403338 10.5827935,15.1043338 C10.5827935,15.3443338 10.6787935,15.6323338 10.9027935,15.9683338 C11.1267935,16.3203338 11.3507935,16.5123338 11.5747935,16.5123338 C11.7347935,16.5123338 11.8147935,16.4323338 11.8147935,16.2723338 C11.6547935,14.9923338 12.7788505,3.23173461 12.7788505,1.26373461 C12.7788505,0.447734607 12.8428505,-0.560265393 13.0028505,-1.74426539 C13.1308505,-2.84826539 13.2908505,-3.74426539 13.4668505,-4.43226539 L13.5788505,-4.52826539 C13.9148505,-4.68826539 14.0908505,-4.91226539 14.0908505,-5.16826539 Z" id="l" transform="translate(12.320822, 5.184034) rotate(72.000000) translate(-12.320822, -5.184034) "></path>
                </g>
            </g>
        </g>
    </g>
</svg>