<?xml version="1.0" encoding="UTF-8"?>
<svg width="31px" height="38px" viewBox="0 0 31 38" version="1.1" xmlns="http://www.w3.org/2000/svg" xmlns:xlink="http://www.w3.org/1999/xlink">
    <!-- Generator: Sketch 46 (44423) - http://www.bohemiancoding.com/sketch -->
    <title>one-finger-tap</title>
    <desc>Created with Sketch.</desc>
    <defs></defs>
    <g id="Page-1" stroke="none" stroke-width="1" fill="none" fill-rule="evenodd">
        <g id="iphone-empty" transform="translate(-80.000000, -576.000000)" fill-rule="nonzero" fill="#0955B3">
            <path d="M95.7922899,585.54573 C96.6068854,584.539061 97.0948091,583.257179 97.0948091,581.861336 C97.0948091,578.624209 94.4705996,576 91.2334728,576 C87.996346,576 85.3721366,578.624209 85.3721366,581.861336 C85.3721366,583.257179 85.8600603,584.539061 86.6746557,585.54573 L86.6746557,581.85 C86.6746557,579.336086 88.7157077,577.302519 91.2334728,577.302519 C93.7461149,577.302519 95.7922899,579.338496 95.7922899,581.85 L95.7922899,585.54573 L95.7922899,585.54573 L95.7922899,585.54573 Z M99.0469456,612.470537 C104.443064,612.470537 108.817482,607.800713 108.817482,602.701643 C108.817482,602.701643 108.817482,605.714687 108.817482,602.701643 L108.817482,597.816105 L108.817482,594.888711 C108.817482,593.808463 107.950268,592.932749 106.863703,592.932749 C105.784661,592.932749 104.909924,593.806986 104.909924,594.888711 L104.909924,595.537788 L103.607405,595.537788 L103.607405,592.289876 C103.607405,591.206202 102.740191,590.327711 101.653626,590.327711 C100.574584,590.327711 99.6998474,591.202405 99.6998474,592.289876 L99.6998474,594.235268 L98.3973283,594.235268 L98.3973283,590.987357 C98.3973283,589.903683 97.5301147,589.025192 96.4435495,589.025192 C95.3645073,589.025192 94.4897707,589.899886 94.4897707,590.987357 L94.4897707,595.537788 L93.1872516,595.537788 L93.1872516,581.868163 C93.1872516,580.78535 92.320038,579.907558 91.2334728,579.907558 C90.1544306,579.907558 89.279694,580.776507 89.279694,581.868163 L89.279694,596.579787 C86.5985891,593.713697 83.0688005,590.561019 81.6222265,592.015405 C80.206167,593.439112 83.8551732,597.362254 88.9506458,605.93592 C91.2464927,609.798924 94.1514868,612.46994 99.0469456,612.470537 L99.0469456,612.470537 Z M110.120001,602.701643 C110.120001,608.816216 105.163161,613.773056 99.0485879,613.773056 C94.9939561,613.773056 90.7148189,611.881128 87.7698404,606.51571 C83.5190839,598.771312 78.0830476,593.692388 80.6714924,591.103944 C82.5232176,589.252218 85.4305436,591.028683 87.9771749,593.410496 L87.9771749,593.410496 L87.9771749,581.872289 C87.9771749,580.057891 89.4350692,578.605038 91.2334728,578.605038 C93.0444147,578.605038 94.4897707,580.067836 94.4897707,581.872289 L94.4897707,588.371803 C95.0340027,587.964036 95.7104879,587.722673 96.4435495,587.722673 C97.8535501,587.722673 99.0419256,588.605087 99.4990218,589.843335 C100.07314,589.335178 100.827452,589.025192 101.653626,589.025192 C103.464568,589.025192 104.909924,590.481702 104.909924,592.278398 L104.909924,592.295932 C105.454156,591.888801 106.130641,591.648714 106.863703,591.648714 C108.674645,591.648714 110.120001,593.106682 110.120001,594.905176 L110.120001,602.701643 L110.120001,602.701643 Z" id="one-finger-tap" transform="translate(95.060000, 594.886528) scale(-1, 1) translate(-95.060000, -594.886528) "></path>
        </g>
    </g>
</svg>