<?xml version="1.0" encoding="UTF-8"?>
<svg width="31px" height="38px" viewBox="0 0 31 38" version="1.1" xmlns="http://www.w3.org/2000/svg" xmlns:xlink="http://www.w3.org/1999/xlink">
    <!-- Generator: Sketch 46 (44423) - http://www.bohemiancoding.com/sketch -->
    <title>one-finger-tap</title>
    <desc>Created with Sketch.</desc>
    <defs></defs>
    <g id="Page-1" stroke="none" stroke-width="1" fill="none" fill-rule="evenodd">
        <g id="iphone-empty" transform="translate(-265.000000, -576.000000)" fill-rule="nonzero" fill="#0955B3">
            <path d="M280.79229,585.54573 C281.606885,584.539061 282.094809,583.257179 282.094809,581.861336 C282.094809,578.624209 279.4706,576 276.233473,576 C272.996346,576 270.372137,578.624209 270.372137,581.861336 C270.372137,583.257179 270.86006,584.539061 271.674656,585.54573 L271.674656,581.85 C271.674656,579.336086 273.715708,577.302519 276.233473,577.302519 C278.746115,577.302519 280.79229,579.338496 280.79229,581.85 L280.79229,585.54573 L280.79229,585.54573 L280.79229,585.54573 Z M284.046946,612.470537 C289.443064,612.470537 293.817482,607.800713 293.817482,602.701643 C293.817482,602.701643 293.817482,605.714687 293.817482,602.701643 L293.817482,597.816105 L293.817482,594.888711 C293.817482,593.808463 292.950268,592.932749 291.863703,592.932749 C290.784661,592.932749 289.909924,593.806986 289.909924,594.888711 L289.909924,595.537788 L288.607405,595.537788 L288.607405,592.289876 C288.607405,591.206202 287.740191,590.327711 286.653626,590.327711 C285.574584,590.327711 284.699847,591.202405 284.699847,592.289876 L284.699847,594.235268 L283.397328,594.235268 L283.397328,590.987357 C283.397328,589.903683 282.530115,589.025192 281.44355,589.025192 C280.364507,589.025192 279.489771,589.899886 279.489771,590.987357 L279.489771,595.537788 L278.187252,595.537788 L278.187252,581.868163 C278.187252,580.78535 277.320038,579.907558 276.233473,579.907558 C275.154431,579.907558 274.279694,580.776507 274.279694,581.868163 L274.279694,596.579787 C271.598589,593.713697 268.0688,590.561019 266.622226,592.015405 C265.206167,593.439112 268.855173,597.362254 273.950646,605.93592 C276.246493,609.798924 279.151487,612.46994 284.046946,612.470537 L284.046946,612.470537 Z M295.120001,602.701643 C295.120001,608.816216 290.163161,613.773056 284.048588,613.773056 C279.993956,613.773056 275.714819,611.881128 272.76984,606.51571 C268.519084,598.771312 263.083048,593.692388 265.671492,591.103944 C267.523218,589.252218 270.430544,591.028683 272.977175,593.410496 L272.977175,593.410496 L272.977175,581.872289 C272.977175,580.057891 274.435069,578.605038 276.233473,578.605038 C278.044415,578.605038 279.489771,580.067836 279.489771,581.872289 L279.489771,588.371803 C280.034003,587.964036 280.710488,587.722673 281.44355,587.722673 C282.85355,587.722673 284.041926,588.605087 284.499022,589.843335 C285.07314,589.335178 285.827452,589.025192 286.653626,589.025192 C288.464568,589.025192 289.909924,590.481702 289.909924,592.278398 L289.909924,592.295932 C290.454156,591.888801 291.130641,591.648714 291.863703,591.648714 C293.674645,591.648714 295.120001,593.106682 295.120001,594.905176 L295.120001,602.701643 L295.120001,602.701643 Z" id="one-finger-tap"></path>
        </g>
    </g>
</svg>