<?xml version="1.0" encoding="UTF-8"?>
<svg width="92px" height="19px" viewBox="0 0 92 19" version="1.1" xmlns="http://www.w3.org/2000/svg" xmlns:xlink="http://www.w3.org/1999/xlink">
    <!-- Generator: Sketch 46.1 (44463) - http://www.bohemiancoding.com/sketch -->
    <title>Group 4</title>
    <desc>Created with Sketch.</desc>
    <defs></defs>
    <g id="Page-1" stroke="none" stroke-width="1" fill="none" fill-rule="evenodd">
        <g id="iPhone-7-plus-speed-test" transform="translate(-255.000000, -127.000000)" fill="#FFFFFF">
            <g id="Group-4" transform="translate(251.000000, 127.000000)">
                <path d="M36.224,1.408 C36.224,0.976 35.968,0.752 35.472,0.752 C35.056,0.752 34.736,0.928 34.544,1.264 C33.584,1.648 32.816,2.128 32.208,2.672 C31.36,3.424 30.944,4.224 30.944,5.056 C30.944,5.776 31.168,6.336 31.648,6.736 C31.872,6.928 32.368,7.216 33.168,7.568 C33.84,7.888 34.256,8.112 34.448,8.24 C34.736,8.496 34.88,8.816 34.88,9.216 C34.88,9.84 34.528,10.368 33.856,10.816 C33.232,11.232 32.608,11.424 32,11.424 C31.904,11.424 31.76,11.408 31.568,11.344 C31.376,11.312 31.248,11.28 31.152,11.28 C31.008,11.28 30.896,11.344 30.8,11.456 C30.704,11.584 30.656,11.696 30.656,11.824 C30.656,12.272 31.088,12.496 31.952,12.496 C32.848,12.496 33.696,12.208 34.512,11.632 C35.408,10.992 35.856,10.208 35.856,9.312 C35.856,8.608 35.616,8.032 35.168,7.6 C34.88,7.344 34.352,7.04 33.568,6.688 C32.928,6.4 32.544,6.208 32.416,6.096 C32.08,5.856 31.92,5.536 31.92,5.12 C31.92,4.336 32.416,3.616 33.408,2.96 C34.128,2.496 34.944,2.144 35.856,1.92 C36.096,1.856 36.224,1.696 36.224,1.408 Z M42.848,6.368 C42.848,5.92 42.448,5.68 41.648,5.68 C41.52,5.68 41.28,5.68 40.896,5.664 L40.24,5.664 C40.384,4.976 40.592,4.144 40.848,3.152 C40.976,2.592 41.088,2.192 41.184,1.968 C41.248,1.824 41.28,1.712 41.28,1.632 C41.28,1.264 41.104,1.072 40.752,1.072 C40.56,1.072 40.416,1.216 40.336,1.488 C39.824,3.344 39.456,4.736 39.248,5.68 C38.576,5.68 38.24,5.856 38.24,6.192 C38.24,6.576 38.496,6.752 39.008,6.752 L38.496,9.344 C38.288,10.4 38.192,11.168 38.192,11.664 C38.192,12.432 38.384,12.832 38.8,12.832 C38.912,12.832 39.024,12.768 39.152,12.672 C39.264,12.576 39.328,12.464 39.328,12.336 C39.328,12.128 39.248,11.984 39.104,11.856 C39.104,11.104 39.216,10.24 39.408,9.264 C39.408,9.184 39.6,8.336 39.968,6.72 C40.064,6.72 40.384,6.736 40.912,6.736 C41.424,6.752 41.744,6.752 41.904,6.752 C42,6.88 42.128,6.944 42.272,6.976 L42.496,6.976 C42.72,6.752 42.848,6.56 42.848,6.368 Z M49.136,8.24 C49.136,8.304 49.104,8.4 49.072,8.528 C48.832,9.2 48.72,9.92 48.72,10.656 C48.72,10.928 48.736,11.2 48.8,11.456 C48.896,11.936 48.96,12.176 48.96,12.208 C48.96,12.512 48.784,12.672 48.448,12.672 C48.128,12.672 47.952,12.4 47.904,11.888 C47.872,11.616 47.824,11.184 47.76,10.592 C46.88,11.648 46.032,12.176 45.216,12.176 C44.784,12.176 44.416,11.984 44.112,11.568 C43.808,11.216 43.664,10.8 43.664,10.336 C43.664,9.6 43.984,8.832 44.656,8 C44.784,7.84 45.024,7.584 45.36,7.264 C46.416,6.304 47.296,5.824 48.032,5.824 C48.192,5.824 48.368,5.904 48.544,6.032 C48.704,6.176 48.8,6.336 48.8,6.512 C48.8,6.544 48.784,6.624 48.752,6.736 C48.88,7.056 48.944,7.424 48.944,7.824 C49.072,7.984 49.136,8.128 49.136,8.24 Z M48.016,7.792 C48.016,7.232 47.872,6.944 47.616,6.944 C47.408,6.944 47.072,7.12 46.624,7.456 C46.208,7.76 45.872,8.064 45.616,8.368 C44.944,9.12 44.624,9.76 44.624,10.288 C44.624,10.848 44.832,11.12 45.28,11.12 C45.888,11.12 46.48,10.752 47.088,9.984 C47.696,9.216 48.016,8.496 48.016,7.792 Z M56.384,6.352 C56.368,6.176 56.304,6 56.176,5.84 C56.016,5.68 55.856,5.6 55.696,5.6 C55.056,5.6 54.432,5.84 53.824,6.32 C53.184,6.816 52.688,7.424 52.304,8.144 C52.24,7.824 52.144,7.376 52.016,6.768 C51.888,6.192 51.648,5.888 51.296,5.888 C51.216,5.888 51.152,5.952 51.088,6.08 C51.008,6.208 50.976,6.32 50.976,6.416 C50.976,6.672 51.008,7.024 51.088,7.456 C51.12,7.68 51.216,7.904 51.408,8.096 C51.504,8.56 51.568,9.024 51.568,9.488 C51.568,9.904 51.52,10.352 51.44,10.832 C51.36,11.232 51.296,11.504 51.264,11.664 C51.264,11.888 51.328,12.064 51.456,12.256 C51.584,12.448 51.728,12.56 51.904,12.56 C52.112,12.56 52.288,12.016 52.432,10.944 C52.688,8.896 53.52,7.568 54.896,6.928 C55.088,6.992 55.184,7.024 55.216,7.024 C55.376,7.024 55.584,6.96 55.872,6.832 C56.208,6.688 56.384,6.528 56.384,6.352 Z M62.176,6.368 C62.176,5.92 61.776,5.68 60.976,5.68 C60.848,5.68 60.608,5.68 60.224,5.664 L59.568,5.664 C59.712,4.976 59.92,4.144 60.176,3.152 C60.304,2.592 60.416,2.192 60.512,1.968 C60.576,1.824 60.608,1.712 60.608,1.632 C60.608,1.264 60.432,1.072 60.08,1.072 C59.888,1.072 59.744,1.216 59.664,1.488 C59.152,3.344 58.784,4.736 58.576,5.68 C57.904,5.68 57.568,5.856 57.568,6.192 C57.568,6.576 57.824,6.752 58.336,6.752 L57.824,9.344 C57.616,10.4 57.52,11.168 57.52,11.664 C57.52,12.432 57.712,12.832 58.128,12.832 C58.24,12.832 58.352,12.768 58.48,12.672 C58.592,12.576 58.656,12.464 58.656,12.336 C58.656,12.128 58.576,11.984 58.432,11.856 C58.432,11.104 58.544,10.24 58.736,9.264 C58.736,9.184 58.928,8.336 59.296,6.72 C59.392,6.72 59.712,6.736 60.24,6.736 C60.752,6.752 61.072,6.752 61.232,6.752 C61.328,6.88 61.456,6.944 61.6,6.976 L61.824,6.976 C62.048,6.752 62.176,6.56 62.176,6.368 Z M74.128,12.304 C74.064,11.872 74.032,11.536 74,11.28 C73.904,10.288 73.872,9.552 73.872,9.056 C73.872,8.88 73.872,8.608 73.904,8.256 C73.936,7.92 73.952,7.696 73.952,7.584 C73.952,7.36 73.888,7.168 73.76,6.976 C73.616,6.8 73.456,6.704 73.264,6.704 C72.944,6.704 72.304,7.088 71.36,7.856 C70.528,8.544 69.856,9.2 69.344,9.824 C69.536,7.92 69.936,5.376 70.576,2.176 C70.72,1.392 70.8,0.976 70.8,0.928 C70.8,0.736 70.736,0.544 70.608,0.352 C70.48,0.176 70.32,0.08 70.16,0.08 C70.048,0.08 69.968,0.16 69.92,0.288 C69.888,0.368 69.84,0.576 69.776,0.928 L69.472,2.72 C69.056,5.04 68.848,6.256 68.848,6.352 C68.608,7.872 68.496,9.184 68.496,10.272 C68.496,10.336 68.496,10.48 68.512,10.672 L68.512,11.072 C68.512,11.104 68.496,11.2 68.496,11.36 C68.464,11.52 68.464,11.616 68.464,11.648 C68.464,11.824 68.528,11.984 68.672,12.144 C68.816,12.304 68.976,12.384 69.168,12.384 C69.248,12.384 69.376,12.176 69.552,11.792 C69.648,11.552 69.76,11.312 69.888,11.056 C70.4,10.08 71.408,9.088 72.928,8.064 L73.04,10.896 C73.072,12.016 73.36,12.592 73.888,12.592 C74.048,12.592 74.128,12.496 74.128,12.304 Z M81.824,11.856 C81.824,12.272 81.328,12.496 80.368,12.496 C79.12,12.496 78.224,11.904 77.68,10.72 C77.552,10.752 77.392,10.768 77.232,10.768 C76.672,10.768 76.224,10.672 75.904,10.464 C75.504,10.24 75.312,10 75.312,9.744 C75.312,9.392 75.472,9.216 75.792,9.216 C75.84,9.216 76,9.312 76.272,9.504 C76.544,9.68 76.816,9.76 77.088,9.76 C77.184,9.76 77.296,9.76 77.392,9.744 C77.344,9.488 77.328,9.248 77.328,9.008 C77.328,8.24 77.52,7.488 77.904,6.768 C78.336,5.952 78.88,5.536 79.536,5.536 C79.936,5.536 80.336,5.76 80.752,6.176 C81.04,6.496 81.2,6.864 81.2,7.28 C81.2,7.92 80.928,8.528 80.4,9.136 C79.92,9.696 79.328,10.128 78.624,10.432 C78.944,11.104 79.44,11.44 80.144,11.44 C80.288,11.44 80.512,11.424 80.816,11.36 C81.104,11.328 81.28,11.312 81.36,11.312 C81.488,11.312 81.584,11.376 81.68,11.488 C81.776,11.616 81.824,11.728 81.824,11.856 Z M80.256,7.36 C80.256,7.168 80.16,6.992 80,6.832 C79.824,6.688 79.648,6.608 79.472,6.608 C79.152,6.608 78.88,6.864 78.656,7.344 C78.432,7.824 78.32,8.336 78.32,8.848 C78.32,9.04 78.336,9.264 78.368,9.488 C78.88,9.264 79.328,8.96 79.696,8.56 C80.064,8.192 80.256,7.792 80.256,7.36 Z M88.64,6.352 C88.624,6.176 88.56,6 88.432,5.84 C88.272,5.68 88.112,5.6 87.952,5.6 C87.312,5.6 86.688,5.84 86.08,6.32 C85.44,6.816 84.944,7.424 84.56,8.144 C84.496,7.824 84.4,7.376 84.272,6.768 C84.144,6.192 83.904,5.888 83.552,5.888 C83.472,5.888 83.408,5.952 83.344,6.08 C83.264,6.208 83.232,6.32 83.232,6.416 C83.232,6.672 83.264,7.024 83.344,7.456 C83.376,7.68 83.472,7.904 83.664,8.096 C83.76,8.56 83.824,9.024 83.824,9.488 C83.824,9.904 83.776,10.352 83.696,10.832 C83.616,11.232 83.552,11.504 83.52,11.664 C83.52,11.888 83.584,12.064 83.712,12.256 C83.84,12.448 83.984,12.56 84.16,12.56 C84.368,12.56 84.544,12.016 84.688,10.944 C84.944,8.896 85.776,7.568 87.152,6.928 C87.344,6.992 87.44,7.024 87.472,7.024 C87.632,7.024 87.84,6.96 88.128,6.832 C88.464,6.688 88.64,6.528 88.64,6.352 Z M95.328,11.856 C95.328,12.272 94.832,12.496 93.872,12.496 C92.624,12.496 91.728,11.904 91.184,10.72 C91.056,10.752 90.896,10.768 90.736,10.768 C90.176,10.768 89.728,10.672 89.408,10.464 C89.008,10.24 88.816,10 88.816,9.744 C88.816,9.392 88.976,9.216 89.296,9.216 C89.344,9.216 89.504,9.312 89.776,9.504 C90.048,9.68 90.32,9.76 90.592,9.76 C90.688,9.76 90.8,9.76 90.896,9.744 C90.848,9.488 90.832,9.248 90.832,9.008 C90.832,8.24 91.024,7.488 91.408,6.768 C91.84,5.952 92.384,5.536 93.04,5.536 C93.44,5.536 93.84,5.76 94.256,6.176 C94.544,6.496 94.704,6.864 94.704,7.28 C94.704,7.92 94.432,8.528 93.904,9.136 C93.424,9.696 92.832,10.128 92.128,10.432 C92.448,11.104 92.944,11.44 93.648,11.44 C93.792,11.44 94.016,11.424 94.32,11.36 C94.608,11.328 94.784,11.312 94.864,11.312 C94.992,11.312 95.088,11.376 95.184,11.488 C95.28,11.616 95.328,11.728 95.328,11.856 Z M93.76,7.36 C93.76,7.168 93.664,6.992 93.504,6.832 C93.328,6.688 93.152,6.608 92.976,6.608 C92.656,6.608 92.384,6.864 92.16,7.344 C91.936,7.824 91.824,8.336 91.824,8.848 C91.824,9.04 91.84,9.264 91.872,9.488 C92.384,9.264 92.832,8.96 93.2,8.56 C93.568,8.192 93.76,7.792 93.76,7.36 Z" id="Start-here"></path>
                <g id="Group-3" transform="translate(14.000000, 12.500000) rotate(-20.000000) translate(-14.000000, -12.500000) translate(2.000000, 7.000000)">
                    <path d="M6.86210656,9.48013115 C6.86210656,9.23644262 6.74838525,9.09022951 6.53718852,9.009 C5.48120492,8.58660656 4.00282787,8.0017541 2.10205738,7.27068852 C3.40172951,5.71108197 4.58768033,4.34642623 5.64366393,3.17672131 C5.87110656,2.91678689 5.98482787,2.73808197 5.98482787,2.64060656 C5.98482787,2.51063934 5.93609016,2.38067213 5.85486066,2.25070492 C5.75738525,2.13698361 5.65990984,2.072 5.54618852,2.072 C5.3512377,2.072 5.15628689,2.15322951 4.96133607,2.29944262 C4.75013934,2.54313115 4.60392623,2.73808197 4.52269672,2.88429508 C4.23027049,3.22545902 4.00282787,3.50163934 3.82412295,3.69659016 C2.75189344,4.94752459 1.95584426,5.88978689 1.41972951,6.50713115 C1.27351639,6.66959016 1.12730328,6.81580328 0.997336066,6.9782623 C0.834877049,7.17321311 0.769893443,7.33567213 0.769893443,7.48188525 C0.769893443,7.74181967 0.883614754,7.90427869 1.14354918,7.9855082 C2.39448361,8.48913115 3.90535246,9.07398361 5.69240164,9.72381967 C5.87110656,9.90252459 6.09854918,10 6.39097541,10 C6.69964754,10 6.86210656,9.82129508 6.86210656,9.48013115 Z" id="&lt;"></path>
                    <path d="M14.0908505,-5.16826539 C14.0908505,-5.36026539 13.9628505,-5.58426539 13.7228505,-5.80826539 C13.4668505,-6.03226539 13.2748505,-6.14426539 13.1148505,-6.14426539 C12.9868505,-6.14426539 12.9068505,-6.03226539 12.8428505,-5.82426539 C12.1388505,-3.47226539 11.8028505,-1.28026539 11.8028505,0.751734607 C11.8028505,1.79173461 10.6307935,12.7683338 10.6947935,13.4083338 C10.5987935,13.5683338 10.5507935,13.7603338 10.5507935,14.0003338 C10.5507935,14.0643338 10.5507935,14.2403338 10.5667935,14.5443338 C10.5667935,14.8643338 10.5827935,15.0403338 10.5827935,15.1043338 C10.5827935,15.3443338 10.6787935,15.6323338 10.9027935,15.9683338 C11.1267935,16.3203338 11.3507935,16.5123338 11.5747935,16.5123338 C11.7347935,16.5123338 11.8147935,16.4323338 11.8147935,16.2723338 C11.6547935,14.9923338 12.7788505,3.23173461 12.7788505,1.26373461 C12.7788505,0.447734607 12.8428505,-0.560265393 13.0028505,-1.74426539 C13.1308505,-2.84826539 13.2908505,-3.74426539 13.4668505,-4.43226539 L13.5788505,-4.52826539 C13.9148505,-4.68826539 14.0908505,-4.91226539 14.0908505,-5.16826539 Z" id="l" transform="translate(12.320822, 5.184034) rotate(72.000000) translate(-12.320822, -5.184034) "></path>
                </g>
            </g>
        </g>
    </g>
</svg>